<svg xmlns="http://www.w3.org/2000/svg" width="141" height="150.0656634746922" viewBox="0 0 141 150.0656634746922" class="editor-view__logo-preview" data-v-719f541d="" data-v-42122950=""><svg id="mark" viewBox="0 0 731 778" width="141" height="150.0656634746922" x="0" y="0" data-v-719f541d="" style="fill: rgb(5, 161, 44);"><rect x="0" y="0" width="100%" height="100%" fill="none" data-v-719f541d=""></rect><g data-v-719f541d="">
	<path xmlns="http://www.w3.org/2000/svg" d="M 348.500 3.560 C 346.850 3.785, 340.100 4.459, 333.500 5.058 C 286.435 9.329, 239.991 23.508, 198.500 46.275 C 141.639 77.475, 99.126 117.341, 61.760 174.500 C 38.751 209.696, 25.532 240.272, 15.501 281.500 C 6.883 316.917, 4 342.425, 4 383.260 C 4 424.725, 7.618 452.391, 17.985 490.200 C 39.234 567.698, 86.457 641.429, 147.500 692.413 C 193.944 731.204, 240.847 754.735, 296 766.914 C 341.293 776.915, 394.027 776.178, 442 764.874 C 487.115 754.243, 542.169 725.616, 582 692.078 C 645.947 638.233, 691.238 567.816, 711.963 490.014 C 735.179 402.861, 730.254 306.333, 698.826 232.531 C 669.727 164.197, 626.270 110.810, 564.500 67.509 C 514.523 32.475, 460.446 11.872, 401.500 5.407 C 388.516 3.983, 354.174 2.786, 348.500 3.560 M 347.500 20.608 C 273.743 25.206, 208.143 51.555, 147 101.142 C 141.775 105.379, 136.312 109.904, 134.859 111.196 L 132.218 113.545 136.067 113.545 C 138.974 113.545, 140.677 114.274, 143.027 116.523 C 145.933 119.305, 146.205 119.379, 147.171 117.655 C 148.470 115.339, 155.578 112.051, 159.349 112.022 C 166.107 111.970, 172 117.356, 172 123.585 L 172 126.270 173.838 123.885 C 177.042 119.729, 183.754 107.605, 184.388 104.829 C 184.922 102.490, 184.635 102.079, 182.078 101.517 C 177.261 100.459, 174 96.696, 174 92.196 C 174 87.536, 177.598 81.640, 180.717 81.189 C 183.879 80.732, 188.748 83.613, 190.483 86.967 C 192.374 90.624, 192.369 98.233, 190.471 103.500 C 189.679 105.700, 189.023 107.605, 189.015 107.734 C 189.007 107.862, 190.575 107.217, 192.500 106.299 C 195.697 104.774, 196 104.258, 196 100.338 C 196 94.672, 199.060 92.500, 207.040 92.500 C 212.143 92.500, 213.188 92.902, 218.262 96.816 C 225.324 102.265, 227.758 105.697, 225.849 107.516 C 222.919 110.306, 213.548 114.337, 208.965 114.777 C 205.066 115.152, 203.232 114.742, 199.515 112.664 C 192.390 108.682, 189.486 110.263, 180.580 122.972 C 177.676 127.117, 172.748 133.164, 169.630 136.409 C 166.512 139.655, 163.707 143.478, 163.397 144.905 C 163.087 146.332, 162.645 148.100, 162.416 148.833 C 162.187 149.566, 165.487 154.250, 169.750 159.242 L 177.500 168.317 177.770 164.909 C 178.258 158.748, 179.023 156.942, 181.554 155.980 C 184.310 154.932, 184.275 155.009, 185.850 146.500 C 187.291 138.712, 190.980 134.998, 197.266 135.005 C 204.547 135.014, 209.080 138.642, 215.919 149.936 C 218.882 154.829, 219.048 155.492, 217.584 156.562 C 215.063 158.406, 208.264 159.150, 204.188 158.029 C 202.159 157.471, 198.524 155.436, 196.109 153.507 C 193.694 151.578, 191.388 150, 190.984 150 C 190.580 150, 188.620 151.912, 186.628 154.250 C 182.573 159.009, 182.133 162.524, 184.027 175 C 184.570 178.575, 185.513 185.100, 186.123 189.500 C 186.732 193.900, 187.378 197.661, 187.557 197.859 C 188.225 198.591, 198.135 189.518, 200.047 186.423 C 201.635 183.855, 201.828 182.678, 201.016 180.541 C 199.571 176.743, 199.742 176.460, 201.883 179.103 C 203.599 181.223, 204.018 181.313, 206.633 180.123 C 213.236 177.118, 223.115 169.590, 228.486 163.473 C 233.425 157.848, 234.153 156.514, 233.652 154.012 C 232.320 147.348, 236.653 142.509, 243.773 142.711 C 246.632 142.792, 248.166 143.605, 250.721 146.393 C 252.524 148.361, 254 150.615, 254 151.404 C 254 152.230, 251.460 153.822, 248 155.163 C 244.700 156.443, 242 157.808, 242 158.197 C 242 158.586, 239.863 160.357, 237.250 162.133 C 234.638 163.909, 228.929 168.699, 224.565 172.777 C 220.201 176.855, 214.224 181.550, 211.282 183.210 C 208.045 185.037, 205.307 187.467, 204.347 189.364 C 203.475 191.089, 200.103 195.739, 196.855 199.697 C 189.006 209.262, 172.449 233.989, 168.865 241.500 C 165.617 248.306, 165.298 253.034, 167.416 263 C 170.233 276.256, 177.567 289.255, 184.813 293.834 C 190.125 297.191, 218.824 310.517, 219.416 309.902 C 219.628 309.681, 220.325 303.650, 220.965 296.500 C 221.748 287.747, 222.933 281.213, 224.590 276.500 C 225.944 272.650, 227.443 268.318, 227.921 266.873 C 228.557 264.949, 228.260 263.076, 226.811 259.873 C 225.270 256.466, 224.967 254.285, 225.438 249.999 C 226.399 241.260, 224.582 234.608, 218.044 222.926 C 214.790 217.111, 211.799 211.049, 211.399 209.455 L 210.672 206.557 213.709 210.028 C 219.942 217.151, 227.736 228.927, 229.987 234.619 C 233.206 242.761, 234 243.258, 234 237.130 C 234 228.967, 239.332 217.215, 248.849 204.404 L 251.149 201.308 248.483 197.404 C 244.946 192.223, 245.404 185.685, 249.533 182.392 C 252.145 180.310, 252.193 180.113, 250.632 177.885 C 248.133 174.317, 248.586 170.260, 251.850 166.997 C 255.636 163.211, 260.445 162.406, 267.329 164.407 C 274.793 166.577, 278.400 170.763, 277.752 176.506 C 277.181 181.577, 272.826 188.350, 268.922 190.241 L 265.992 191.660 269.746 194.080 C 272.436 195.814, 274.463 198.469, 276.898 203.446 C 282.814 215.542, 282.217 227.834, 275.315 236.037 C 273.006 238.781, 272.959 239.038, 274.663 239.579 C 294.498 245.878, 310 259.730, 310 271.155 C 310 274.748, 309.373 276.625, 307.321 279.173 C 302.869 284.703, 297.651 290, 296.658 290 C 294.433 290, 296.973 280.010, 300.578 274.581 C 303.705 269.871, 304.175 268.464, 303.667 265.336 C 302.469 257.952, 292.244 250.578, 274.045 243.972 C 259.982 238.867, 253.893 239.158, 245.792 245.319 C 241.273 248.756, 240.109 251.278, 237.973 262.259 C 237.287 265.783, 235.482 270.053, 233.322 273.259 C 225.925 284.240, 225.497 285.547, 225.538 297 C 225.585 309.932, 226.204 311.339, 240.077 330 C 245.597 337.425, 253.800 348.880, 258.306 355.456 C 266.720 367.734, 273.844 375.776, 280 379.945 L 283.500 382.316 279.968 378.908 C 264.777 364.251, 261.936 352.610, 268.966 333.820 C 272.846 323.450, 289.901 300.487, 305.611 284.481 C 312.637 277.322, 326.312 267.412, 344.865 256.034 C 350.565 252.538, 356.525 248.588, 358.108 247.256 L 360.986 244.834 355.023 241.854 C 351.743 240.215, 346.171 236.084, 342.642 232.674 C 335.116 225.402, 333.213 220.819, 335.475 215.405 C 336.377 213.247, 336.670 210.204, 336.311 206.725 C 335.719 200.987, 337.069 197.057, 340.791 193.689 C 342.571 192.078, 342.524 192.403, 340.351 196.691 C 338.148 201.039, 337.361 208.279, 339.231 207 C 340.711 205.987, 342.959 210.882, 342.732 214.622 C 342.504 218.385, 342.573 218.466, 346.500 219.013 C 352.373 219.831, 353.073 220.493, 351.830 224.057 C 350.930 226.640, 351.143 227.617, 353.324 230.914 C 355.484 234.178, 363.811 242, 365.126 242 C 365.356 242, 366.342 240.538, 367.315 238.750 C 368.289 236.963, 372.044 233.250, 375.660 230.500 C 379.277 227.750, 383.838 224.150, 385.796 222.500 C 390.607 218.446, 398 208.268, 398 205.698 C 398 204.136, 391.640 191.876, 389.413 189.145 C 388.730 188.308, 382.441 196.584, 381.352 199.754 C 379.725 204.485, 375.586 208.566, 369.289 211.647 C 364.117 214.178, 361.347 214.317, 354.750 212.379 C 351.014 211.282, 353.656 200.993, 358.976 195.918 L 362.730 192.337 359.863 191.255 C 357.744 190.454, 356.218 188.526, 354.009 183.856 L 351.022 177.540 354.261 175.823 C 359.659 172.962, 367.495 171.678, 371.497 172.999 C 377.140 174.861, 379.271 178.444, 378.784 185.250 C 378.278 192.316, 379.441 192.639, 384.422 186.820 C 388.561 181.985, 388.674 180.742, 386.053 168.893 C 383.734 158.408, 378.983 147.616, 374.769 143.265 C 373.046 141.486, 371.898 139.768, 372.218 139.448 C 373.332 138.334, 379.529 145.678, 383.747 153.111 C 386.371 157.736, 388.769 163.824, 390.024 169.047 C 394.473 187.569, 395.382 190.302, 398.838 195.550 C 400.812 198.547, 402.807 201, 403.270 201 C 403.733 201, 405.100 198.863, 406.306 196.250 C 408.162 192.232, 408.500 189.728, 408.500 180 C 408.500 169.342, 408.292 168.089, 405.653 162.881 C 404.087 159.791, 400.383 154.485, 397.423 151.090 C 390.390 143.027, 386.001 136.586, 385.995 134.320 C 385.992 133.319, 384.929 130.748, 383.633 128.606 C 380.863 124.031, 381.380 119.354, 385.091 115.403 C 387.613 112.719, 394.270 112.094, 397.046 114.282 C 399.696 116.370, 402 120.342, 402 122.821 C 402 126.632, 396.567 131, 391.827 131 C 388.186 131, 387.920 131.182, 388.537 133.250 C 389.661 137.016, 391.740 139.688, 396.655 143.683 C 412.934 156.911, 414.320 159.285, 414.349 174 C 414.374 186.625, 412.844 192.385, 406.531 203.421 C 404.039 207.777, 402 211.904, 402 212.592 C 402 214.988, 393.207 222.538, 384.056 228 C 378.987 231.025, 373.414 234.773, 371.670 236.330 C 368.691 238.989, 368.922 238.935, 375.500 235.435 C 389.569 227.951, 412.643 213.027, 417.413 208.326 C 423.129 202.692, 426.004 198.382, 436.435 179.811 C 444.768 164.976, 445.707 161.201, 442.571 155.137 C 440.935 151.974, 440.941 151.946, 442.956 153.204 C 444.080 153.907, 445 154.849, 445 155.300 C 445 155.750, 445.398 155.872, 445.884 155.571 C 446.371 155.271, 447.331 152.048, 448.017 148.409 C 450.036 137.710, 447.912 117, 444.795 117 C 444.185 117, 441.392 118.769, 438.589 120.931 C 435.786 123.094, 432.145 125.566, 430.497 126.425 C 425.312 129.128, 413.258 128.119, 408.454 124.579 C 406.530 123.161, 406.539 123.067, 409 118.494 C 412.430 112.121, 420.783 104.397, 425.609 103.136 C 432.531 101.326, 439.556 103.623, 443.868 109.105 C 445.074 110.638, 447.778 112.077, 451.005 112.905 L 456.201 114.236 455.529 119.618 C 454.775 125.652, 455.264 126.323, 457.403 122.187 C 458.203 120.640, 460.978 117.016, 463.571 114.133 L 468.284 108.891 467.055 104.695 C 465.132 98.127, 461.528 92.671, 456.305 88.421 C 450.698 83.859, 447.830 81.410, 439.705 74.250 C 436.428 71.362, 433.365 69, 432.898 69 C 432.431 69, 430.575 69.898, 428.774 70.996 C 426.973 72.094, 424.180 72.994, 422.566 72.996 C 418.929 73.001, 411.386 69.449, 410.582 67.353 C 409.531 64.615, 415.101 55.856, 418.903 54.267 C 425.727 51.416, 433.956 55.480, 434.465 61.953 C 434.655 64.371, 435.941 66.582, 438.966 69.690 C 442.687 73.515, 451.076 80, 452.301 80 C 452.544 80, 452.808 76.977, 452.888 73.283 C 453.024 66.987, 454.119 63.785, 455.621 65.287 C 455.980 65.647, 456.623 69.767, 457.049 74.443 C 457.628 80.786, 458.395 83.746, 460.073 86.102 C 462.973 90.176, 468.972 103.904, 468.988 106.505 C 468.999 108.318, 469.663 108.510, 475.917 108.505 C 481.917 108.501, 483.189 108.831, 485.514 111 C 488.587 113.866, 492 120.054, 492 122.759 C 492 124.839, 487.114 127.002, 482.429 126.996 C 477.281 126.990, 471.431 122.134, 468.578 115.500 C 467.729 113.525, 464.149 119.537, 461.479 127.420 C 459.684 132.722, 458.474 139.033, 457.921 145.977 C 456.831 159.668, 456.250 162.915, 453.386 171.334 C 452.076 175.186, 451.202 178.536, 451.445 178.778 C 452.887 180.221, 462.725 170.343, 469.500 160.648 C 478.206 148.190, 501.815 132.034, 511.349 132.010 C 518.779 131.991, 522.448 134.888, 528.944 145.906 L 531.868 150.864 522.790 152.996 C 509.544 156.105, 502.136 154.081, 497.956 146.210 L 496.208 142.920 490.354 148.036 C 484.645 153.025, 478.106 161.324, 478.035 163.669 C 477.950 166.480, 488.345 176.034, 495.243 179.485 C 501.213 182.472, 503.860 184.729, 511.811 193.615 L 521.273 204.190 523.626 201.345 C 527.184 197.042, 527.610 194.278, 525.122 191.630 C 523.426 189.824, 523 188.115, 523 183.109 C 523 177.546, 523.321 176.525, 525.872 173.974 C 529.520 170.326, 533.138 169.425, 538.132 170.921 C 545.463 173.118, 547.188 182.004, 540.994 185.662 C 534.888 189.269, 538.375 192.255, 545.177 189.245 C 555.089 184.857, 573 165.589, 573 159.313 C 573 158.008, 571.875 154.267, 570.500 151 C 567.325 143.457, 567.361 141.648, 570.734 138.994 C 578.884 132.584, 589.272 145.263, 585.025 156.435 C 584.139 158.766, 584.279 159, 586.557 159 C 587.936 159, 590.589 159.637, 592.452 160.416 C 594.460 161.254, 597.455 161.615, 599.803 161.300 C 604.400 160.683, 609.723 162.208, 613.590 165.249 L 616.304 167.385 610.034 173.045 L 603.764 178.706 605.104 182.412 C 606.253 185.589, 606.229 186.501, 604.936 188.809 C 602.637 192.911, 598.665 194.478, 595.091 192.695 C 592.489 191.397, 592.069 191.438, 590.620 193.131 C 588.506 195.600, 582.450 195.572, 578.353 193.074 C 574.272 190.585, 572.569 185.487, 573.356 178.116 L 573.956 172.500 568.423 178.500 C 556.839 191.062, 544.941 211.999, 542.342 224.395 C 541.123 230.211, 541.053 233.214, 541.959 240.950 C 542.568 246.147, 543.218 250.551, 543.404 250.738 C 543.590 250.924, 545.223 248.769, 547.033 245.948 C 550.735 240.180, 558.707 233.688, 564.584 231.657 C 568.155 230.423, 568.552 229.923, 569.088 225.992 C 569.893 220.095, 572.995 217.627, 578.779 218.279 C 583.695 218.833, 586.402 220.911, 589.106 226.210 C 592.394 232.651, 591.473 236.940, 586.500 238.353 C 585.400 238.666, 587.875 238.711, 592 238.453 C 596.125 238.194, 604.370 237.697, 610.322 237.347 C 621.113 236.712, 621.142 236.703, 620.544 234.318 C 619.789 231.313, 621.534 224.632, 623.498 223.002 C 624.314 222.325, 626.567 221.226, 628.506 220.559 L 632.031 219.347 629.516 216.424 C 622.343 208.086, 628.402 196.709, 639.057 198.510 C 643.688 199.292, 646 202.027, 646 206.723 C 646 210.502, 643.848 213.016, 638.109 215.944 C 635.924 217.059, 633.888 218.373, 633.584 218.864 C 633.281 219.354, 634.825 220.942, 637.016 222.392 C 639.577 224.087, 641 225.785, 641 227.146 C 641 230.604, 637.265 235.617, 632.222 238.928 C 625.241 243.510, 621.483 246.816, 622.312 247.645 C 623.875 249.208, 637.320 243.722, 644.832 238.457 C 658.351 228.982, 660.594 227.847, 666.941 227.272 C 671.826 226.829, 673.518 227.108, 676.459 228.843 L 680.035 230.953 671.492 214.041 C 662.066 195.382, 645.951 170.442, 632.373 153.500 C 621.833 140.347, 592.322 110.284, 580.348 100.500 C 556.713 81.188, 537.145 68.410, 512.252 56.033 C 474.446 37.237, 437.590 26.281, 398 22.072 C 387.270 20.931, 356.585 20.041, 347.500 20.608 M 460.901 52.112 C 458.109 53.137, 456.464 55.710, 455.530 60.515 C 455.031 63.085, 455.684 64.414, 459.947 69.515 C 462.699 72.807, 466.499 78.451, 468.391 82.058 C 471.668 88.305, 475 92.422, 475 90.225 C 475 89.663, 473.880 87.246, 472.510 84.852 C 471.141 82.458, 469.518 79, 468.905 77.167 C 467.851 74.015, 467.986 73.655, 471.395 70.532 C 474.072 68.080, 475 66.420, 475 64.083 C 475 59.236, 472.484 54.302, 469.128 52.566 C 465.727 50.807, 464.621 50.746, 460.901 52.112 M 315 61.706 C 305.957 65.012, 307.517 76.956, 317.432 80.320 C 321.793 81.800, 321.493 80.692, 322.224 98.035 L 322.500 104.570 313 104.214 C 307.775 104.019, 301.925 103.373, 300 102.779 C 293.726 100.844, 282 95.141, 282 94.024 C 282 93.424, 283.575 91.358, 285.500 89.433 C 288.473 86.460, 289 85.249, 289 81.390 C 289 77.701, 288.450 76.296, 286.077 73.923 C 281.969 69.815, 277.829 69.971, 273.400 74.400 C 267.995 79.805, 268.970 86.966, 275.718 91.432 C 277.807 92.814, 280.335 95.466, 281.336 97.324 C 284.108 102.473, 294.932 106.848, 305.500 107.091 L 310.500 107.207 306.854 108.178 C 301.660 109.562, 299.534 112.312, 295.089 123.403 C 291.377 132.664, 291.283 133.157, 293.333 132.586 C 294.525 132.254, 298.635 131.253, 302.467 130.362 C 314.933 127.462, 319.943 122.070, 318.711 112.883 L 318.190 109 323.492 109 C 328.238 109, 329.096 109.346, 331.694 112.304 C 333.290 114.122, 335.184 117.031, 335.904 118.769 C 337.022 121.468, 336.991 122.152, 335.687 123.456 C 334.848 124.295, 333.646 126.544, 333.016 128.453 C 331.400 133.349, 333.877 138.474, 338.615 140.038 C 341.565 141.012, 342.540 140.879, 345.569 139.092 L 349.092 137.013 352.891 141.006 C 356.212 144.497, 357.245 144.997, 361.095 144.978 C 367.200 144.947, 370.079 142.527, 370.685 136.917 C 371.088 133.186, 370.679 131.777, 368.049 127.844 C 366.337 125.283, 363.826 122.460, 362.468 121.571 C 359.386 119.552, 359.338 118.202, 362.306 117.074 C 363.575 116.591, 366.108 114.939, 367.935 113.401 L 371.258 110.605 373.879 113.554 C 375.321 115.176, 377.498 117.852, 378.718 119.501 C 380.456 121.850, 380.944 122.104, 380.968 120.673 C 380.986 119.668, 379.182 116.308, 376.961 113.206 L 372.922 107.565 376.365 104.533 C 378.964 102.243, 379.964 100.417, 380.443 97.082 C 381.009 93.141, 380.776 92.368, 378.289 89.930 C 376.755 88.427, 374.920 86.477, 374.211 85.598 C 372.594 83.595, 366.834 83.517, 363.099 85.449 C 360.523 86.781, 355.929 91.470, 353.500 95.246 C 352.297 97.116, 343 98.687, 343 97.021 C 343 96.415, 343.958 94.623, 345.129 93.040 C 347.935 89.245, 347.116 86.166, 341.752 80.347 C 337.862 76.127, 337.311 75.855, 333.786 76.418 C 330.101 77.007, 330 76.942, 330 73.980 C 330 68.701, 327.414 64.071, 323.568 62.464 C 319.963 60.958, 317.616 60.750, 315 61.706 M 491.214 66.710 C 489.957 66.951, 487.144 68.845, 484.964 70.919 C 481.113 74.583, 481 74.881, 481 81.411 C 481 89.224, 481.914 91.387, 486.137 93.571 C 489.771 95.450, 492.953 94.890, 498.218 91.446 C 501.038 89.601, 502.911 86.973, 505.968 80.566 C 508.186 75.920, 510 71.453, 510 70.640 C 510 69.627, 507.806 68.661, 503.053 67.580 C 496.016 65.980, 495.301 65.927, 491.214 66.710 M 188.135 99.357 C 185.812 101.829, 183.679 110.488, 185.902 108.418 C 187.008 107.388, 191.346 97, 190.670 97 C 190.493 97, 189.352 98.060, 188.135 99.357 M 336 105.275 C 334.075 106.251, 332.633 107.548, 332.795 108.159 C 333.293 110.034, 342.058 121, 343.058 121 C 344.554 121, 344.202 119.989, 340.933 114.896 C 338.364 110.893, 338.050 109.775, 338.997 108.006 C 340.975 104.310, 339.877 103.309, 336 105.275 M 121.868 124.343 C 107.294 139.919, 96.713 153.193, 79.908 176.988 C 68.683 192.881, 64.537 199.511, 58.640 211 C 39.632 248.033, 26.547 292.212, 22.002 334.702 C 20.041 353.029, 19.187 383.913, 20.127 402.500 C 20.943 418.625, 25.138 453.471, 26.417 454.750 C 26.692 455.026, 28.060 453.894, 29.456 452.235 C 32.698 448.382, 36.160 447.507, 40.332 449.487 C 44.372 451.404, 47 455.694, 47 460.371 C 47 465.703, 41.644 470.713, 35.001 471.594 C 32.251 471.959, 30 472.683, 30 473.203 C 30 474.891, 36.870 498.581, 40.544 509.562 C 44.795 522.268, 54.025 544.100, 61.138 558.275 L 66.250 568.462 68.199 563.481 C 69.270 560.741, 71.126 557.436, 72.324 556.135 C 74.958 553.272, 91.527 542.280, 98.623 538.688 C 110.146 532.855, 144.097 522.688, 161 520.009 C 181.348 516.784, 212.997 506.323, 217 501.500 C 218.911 499.198, 211.006 494.659, 192.641 487.513 C 172.804 479.795, 165.861 478.765, 132.500 478.591 C 108.084 478.464, 102.315 478.149, 96 476.600 C 91.875 475.588, 87.388 474.187, 86.029 473.486 C 83.745 472.309, 83.189 472.543, 78.706 476.575 C 73.473 481.279, 68.854 482.784, 64.304 481.268 C 60.815 480.106, 60.357 477.972, 62.432 472.540 C 64.146 468.052, 67.056 466.014, 71.797 465.982 C 74.147 465.966, 73.801 465.578, 69.148 463.013 C 66.204 461.391, 62.343 458.586, 60.567 456.781 C 58.791 454.977, 55.905 452.375, 54.153 451 C 52.211 449.475, 50.732 447.240, 50.363 445.271 C 49.843 442.495, 50.267 441.533, 53.379 438.421 C 55.876 435.924, 57 433.899, 57 431.900 C 57 430.305, 57.337 428.964, 57.750 428.920 C 69.602 427.663, 72.690 428.565, 75.564 434.124 C 76.745 436.408, 77.465 436.935, 78.285 436.115 C 79.911 434.489, 84.183 434.751, 87.027 436.651 C 91.367 439.549, 96 444.341, 96.013 445.946 C 96.032 448.283, 101.468 458.541, 105.156 463.196 C 106.944 465.455, 110.429 468.585, 112.900 470.151 C 118.460 473.677, 124.041 473.860, 138.785 470.997 C 144.442 469.899, 151.178 469, 153.754 469 L 158.437 469 152.813 463.250 C 142.096 452.293, 133.465 436.411, 127.920 417.445 C 123.854 403.538, 121.988 399.887, 115.435 393.017 C 109.768 387.076, 108 383.704, 108 378.836 C 108 374.087, 105.089 368.985, 98.880 362.854 C 93.874 357.911, 86.762 353.904, 85.405 355.262 C 85.151 355.515, 85.436 357.018, 86.038 358.601 C 89.179 366.862, 82.176 377.752, 69.706 383.995 L 63.500 387.103 62.867 380.801 C 61.475 366.948, 61.784 363.732, 64.993 358.672 C 67.216 355.167, 68.796 353.791, 71.133 353.323 C 74.042 352.742, 73.759 352.555, 67.390 350.853 C 56.341 347.901, 44.714 346.991, 38.658 348.603 C 33.501 349.976, 25.796 350.463, 24.811 349.478 C 23.795 348.461, 27.255 340.018, 29.683 337.590 C 32.817 334.455, 36.772 333.592, 41.800 334.946 C 46.465 336.202, 47.703 337.461, 48.162 341.420 C 48.496 344.308, 48.614 344.358, 59.010 346.103 C 64.790 347.073, 70.782 348.347, 72.325 348.933 C 76.414 350.488, 76.942 350.275, 75.672 347.585 C 75.046 346.257, 74.149 345.408, 73.680 345.698 C 72.403 346.487, 65.960 339.963, 64.381 336.282 C 62.397 331.658, 62.650 326.752, 65.004 324.226 C 70.868 317.931, 85.626 320.446, 88.394 328.212 C 89.883 332.389, 88.382 335.426, 83.026 339.077 C 80.264 340.960, 78.003 342.978, 78.002 343.563 C 77.998 345.531, 83.451 349.767, 90.536 353.300 C 94.406 355.230, 99.934 358.933, 102.820 361.528 C 107.715 365.930, 108.189 366.139, 109.850 364.636 C 114.577 360.358, 123.186 362.328, 127.044 368.571 C 130.494 374.153, 131.025 377.483, 129.438 383.576 C 128.647 386.613, 128 389.994, 128 391.089 C 128 393.251, 131.423 400.525, 132.858 401.412 C 133.345 401.713, 135.341 399.553, 137.294 396.612 C 143.636 387.060, 148.929 375.293, 152.055 363.796 C 153.929 356.906, 156.122 351.217, 157.707 349.140 C 160.022 346.104, 160.122 345.648, 158.648 344.823 C 153.988 342.215, 152.300 330.700, 156.031 326.969 C 157.148 325.852, 159.349 324.680, 160.922 324.366 C 163.594 323.831, 163.748 323.540, 163.266 319.948 C 162.868 316.977, 163.347 315.084, 165.373 311.627 L 167.996 307.151 162.865 302.663 L 157.734 298.174 150.567 298.716 C 142.800 299.304, 140.114 298.447, 134.500 293.595 C 128.642 288.532, 117.786 290.602, 111.228 298.032 C 101.446 309.117, 85.270 309.963, 73.209 300.020 C 71.193 298.359, 69.254 297, 68.900 297 C 68.546 297, 67.974 298.759, 67.631 300.909 C 66.192 309.904, 52.062 314.603, 47.480 307.609 C 45.618 304.769, 46.735 298.172, 49.763 294.116 L 51.662 291.573 48.581 289.484 C 46.035 287.758, 45.491 286.709, 45.449 283.447 C 45.420 281.190, 44.458 278.002, 43.203 276 C 39.209 269.633, 40.982 264.754, 47.782 263.394 C 50.068 262.936, 51.951 263.364, 54.639 264.950 C 57.917 266.884, 58.446 266.955, 59.222 265.568 C 60.411 263.444, 63.290 263.597, 68.079 266.040 C 74.527 269.330, 78.590 278.214, 76.123 283.628 C 74.959 286.183, 68.648 289.518, 66.956 288.473 C 66.430 288.148, 66 288.070, 66 288.299 C 66 289.031, 76.457 295.691, 82.077 298.539 C 88.584 301.836, 95.722 302.175, 101.449 299.457 C 105.054 297.746, 110.580 291.315, 112.218 286.924 C 113.401 283.753, 111.344 284.754, 109.998 288.005 C 109.314 289.657, 107.218 292.357, 105.342 294.005 C 102.648 296.370, 100.996 297, 97.491 297 C 93.586 297, 92.868 296.645, 91.526 294.050 C 86.882 285.070, 93.235 269.987, 101.654 270.004 C 105.031 270.011, 109.757 273.778, 111.585 277.920 L 113.385 282 122.111 282 C 126.910 282, 131.661 282.276, 132.668 282.614 C 133.940 283.040, 133.686 282.505, 131.836 280.864 C 129.101 278.438, 126.008 273.112, 125.990 270.800 C 125.985 270.085, 126.994 266.219, 128.233 262.208 C 130.879 253.642, 132.418 252.764, 139.384 255.846 C 145.285 258.456, 147.991 262.782, 147.996 269.610 C 147.999 273.443, 147.363 275.660, 145.451 278.478 C 144.048 280.544, 143.084 282.418, 143.308 282.641 C 143.532 282.865, 146.997 283.958, 151.008 285.069 C 155.018 286.181, 159.228 287.587, 160.363 288.194 C 162.421 289.296, 162.422 289.292, 160.513 286.399 C 157.006 281.084, 155.238 276.567, 153.665 268.898 C 150.034 251.197, 138.452 234.013, 128.053 230.898 C 124.604 229.865, 123.225 229.992, 117.716 231.853 C 106.729 235.564, 100.468 234.463, 95.174 227.888 L 92.848 225 108.746 225 C 128.636 225, 132.153 226.007, 140.143 233.989 C 144.332 238.173, 147.012 242.189, 150.539 249.563 C 157.461 264.038, 158.969 264.116, 158.969 250 C 158.969 241.461, 156.102 227.032, 153.870 224.343 C 153.257 223.605, 151.702 223, 150.415 223 C 149.128 223, 145.643 222.090, 142.671 220.978 C 135.685 218.364, 129.439 211.980, 123.214 201.091 C 120.570 196.466, 117.415 192.024, 116.204 191.219 C 114.092 189.817, 114 189.885, 114 192.843 C 114 194.885, 113.337 196.285, 112.041 196.978 C 110.963 197.555, 109.366 199.534, 108.492 201.375 C 105.554 207.567, 98.120 208.866, 92.804 204.116 C 89.745 201.383, 89.450 201.314, 87.177 202.804 C 82.951 205.573, 65 204.187, 65 201.092 C 65 200.566, 65.932 199.839, 67.072 199.477 C 68.211 199.116, 71.474 196.943, 74.322 194.649 C 77.170 192.354, 80.773 189.662, 82.328 188.664 C 84.343 187.373, 84.953 186.369, 84.450 185.176 C 82.654 180.920, 82.911 179.306, 85.894 176.113 C 88.398 173.433, 89.630 172.875, 92.724 173.019 C 99.323 173.325, 99.073 173.634, 98.366 166.033 C 97.724 159.123, 97.746 159.040, 100.965 156.033 C 103.197 153.948, 105.224 153, 107.451 153 C 113.935 153, 116.290 159.251, 113.224 168.330 C 111.366 173.835, 111.360 174.122, 113.074 175.039 C 114.059 175.567, 115.184 177.011, 115.573 178.249 C 115.963 179.487, 118.265 182.710, 120.689 185.411 C 123.574 188.627, 124.701 190.567, 123.953 191.029 C 123.249 191.464, 123.730 191.966, 125.205 192.337 C 126.523 192.667, 131.178 196.238, 135.550 200.271 C 139.923 204.304, 145.637 209.027, 148.250 210.768 L 153 213.932 153 211.185 C 153 209.048, 152.330 208.186, 149.983 207.299 C 148.009 206.554, 146.452 204.933, 145.483 202.612 C 143.519 197.913, 143.611 196.389, 146 194 C 149.074 190.926, 154.494 191.340, 158.077 194.923 C 161.664 198.510, 161.904 202.936, 159.013 212.161 C 157.920 215.647, 157.020 219.327, 157.013 220.338 C 156.993 223.161, 162.867 235.200, 163.940 234.537 C 166.091 233.208, 173.970 219.077, 175.671 213.500 C 177.095 208.828, 177.500 204.181, 177.500 192.500 L 177.500 177.500 173.838 170.500 C 170.109 163.373, 164.142 156, 162.103 156 C 161.482 156, 159.897 158.438, 158.579 161.417 C 155.495 168.390, 152.477 170.427, 146.263 169.726 C 142.827 169.339, 140.953 168.484, 139.283 166.543 C 138.027 165.083, 137 163.479, 137 162.978 C 137 162.477, 138.533 160.534, 140.406 158.660 C 143.193 155.874, 144.864 155.122, 149.591 154.532 C 158.901 153.369, 160 152.684, 160 148.050 L 160 144.050 153.041 144.116 C 147.722 144.165, 145.014 143.648, 141.555 141.920 C 134.753 138.523, 132.827 136.089, 133.922 132.271 C 134.597 129.920, 134.482 129.015, 133.462 128.624 C 131.172 127.745, 128.756 121.970, 129.378 118.862 C 129.692 117.288, 129.849 116.042, 129.725 116.093 C 129.601 116.144, 126.065 119.857, 121.868 124.343 M 468 168.239 C 464.425 172.135, 458.270 177.718, 454.322 180.647 C 450.374 183.576, 446.855 186.882, 446.502 187.994 C 445.468 191.251, 434.290 205.967, 427.637 212.830 C 424.261 216.311, 418.125 221.975, 414 225.417 C 406.656 231.544, 381.711 249.948, 373.203 255.516 L 368.907 258.327 381.203 264.264 C 392.142 269.546, 404.272 274, 407.715 274 C 408.391 274, 408.680 273.329, 408.362 272.500 C 408.045 271.675, 407.259 271, 406.616 271 C 405.972 271, 403.995 269.675, 402.223 268.056 C 399.794 265.838, 399 264.270, 399 261.691 C 399 253.869, 407.417 249.901, 411.906 255.607 L 413.956 258.214 417.055 255.607 C 422.333 251.166, 429.157 252.883, 430.498 258.990 C 431.347 262.858, 432.483 263.475, 435.221 261.558 C 438.002 259.610, 442.038 259.571, 446.532 261.449 C 449.546 262.708, 450 263.353, 450 266.372 C 450 271.149, 446.012 275.748, 441.190 276.532 C 433.566 277.771, 433.591 277.663, 438.871 286.702 C 443.785 295.113, 443.991 295.865, 447.126 316.767 C 447.966 322.371, 448.694 324.706, 449.383 324.017 C 450.777 322.623, 455.336 322.736, 456.800 324.200 C 457.460 324.860, 458 326.944, 458 328.832 C 458 332.925, 452.840 338.437, 448.017 339.496 C 446.358 339.861, 445 340.473, 445 340.856 C 445 341.240, 443.131 344.017, 440.846 347.027 C 437.988 350.792, 436.905 351.720, 437.373 350 C 439.991 340.383, 442.469 315.137, 441.698 305.939 C 441.175 299.695, 440.577 298.058, 436.801 292.517 L 432.500 286.205 430.993 289.353 C 427.693 296.247, 414.483 296.693, 412.146 289.988 L 411.104 287 415.493 287 C 417.907 287, 420.160 286.550, 420.500 286 C 420.844 285.444, 420.093 284.998, 418.809 284.996 C 415.793 284.991, 409.911 281.376, 409.335 279.173 C 408.923 277.598, 406.011 276.515, 396.141 274.263 C 394.008 273.777, 393.890 273.926, 394.906 275.825 C 395.524 276.980, 398.161 279.359, 400.765 281.112 C 410.864 287.911, 412.748 291.797, 409.471 299.065 L 407.695 303.002 411.263 306.467 C 413.225 308.373, 415.736 312.351, 416.842 315.308 C 419.128 321.417, 422.333 336.001, 421.559 336.774 C 421.278 337.056, 420.775 336.434, 420.442 335.393 C 418.725 330.020, 417.671 328.863, 411.786 325.893 C 403.247 321.584, 397.043 316.303, 394.875 311.500 C 393.088 307.538, 393.092 307.484, 395.261 305.826 L 397.451 304.151 394.702 303.461 C 393.190 303.082, 391.363 301.928, 390.640 300.897 C 389.380 299.098, 389.230 299.127, 386.914 301.609 C 384.988 303.672, 378.129 308.002, 376.790 308 C 376.630 307.999, 376.500 302.198, 376.500 295.107 C 376.500 283.825, 376.738 281.951, 378.409 280.103 C 381.018 277.216, 387.613 275.502, 390.700 276.909 C 392.828 277.879, 392.964 277.802, 392.072 276.134 C 390.496 273.190, 382.477 268.365, 371.791 263.931 L 365.082 261.147 358.791 265.189 C 332.424 282.128, 317.988 297.824, 303.530 325.274 C 296.043 339.488, 294.001 346.116, 293.995 356.218 C 293.984 374.586, 300.500 382.287, 331 399.952 C 345.381 408.282, 356.551 416.092, 364.943 423.686 C 371.224 429.370, 372 429.798, 372 427.573 C 372 425.188, 378.511 413.482, 383.270 407.313 C 398.763 387.227, 430.806 359.658, 449.743 350.122 C 456.708 346.615, 459.389 343.308, 463.526 333.129 C 466.386 326.089, 467.268 321.926, 469.480 305 C 471.928 286.275, 471.779 285.266, 465.368 277.332 C 461.841 272.967, 461.052 270.699, 463.369 271.588 C 465.018 272.221, 465.967 269.195, 465.986 263.240 C 466.002 258.201, 464.359 256.447, 457.427 254.106 C 454.810 253.223, 452.230 251.786, 451.693 250.913 C 450.326 248.693, 451.621 242.838, 454.376 238.778 L 456.699 235.355 454.074 234.193 C 449.097 231.990, 445.714 222.439, 447.896 216.750 C 448.750 214.522, 449.573 214.001, 452.225 214.006 C 458.392 214.016, 463.388 216.124, 467.872 220.609 L 472.250 224.987 475.660 221.994 C 478.319 219.659, 480.019 219, 483.380 219 C 488.615 219, 489.870 220.282, 492.983 228.805 C 496.039 237.175, 501.131 242.221, 513.318 248.961 C 518.719 251.947, 526.031 257.042, 529.568 260.284 L 536 266.177 535.991 260.839 C 535.987 257.902, 535.536 250.325, 534.990 244 C 533.351 225.022, 529.749 219.322, 505 196.533 C 488.221 181.083, 483.515 176.231, 479.845 170.595 C 477.730 167.347, 476 163.860, 476 162.845 C 476 161.830, 475.663 161.035, 475.250 161.078 C 474.837 161.121, 471.575 164.343, 468 168.239 M 582.500 168 C 582.160 168.550, 582.359 169, 582.941 169 C 583.523 169, 584 168.550, 584 168 C 584 167.450, 583.802 167, 583.559 167 C 583.316 167, 582.840 167.450, 582.500 168 M 290 181.070 C 290 181.581, 290.401 182, 290.891 182 C 291.381 182, 293.291 184.911, 295.135 188.468 C 298.098 194.183, 299.059 195.173, 303.378 196.968 C 310.077 199.752, 311.186 199.639, 310.400 196.250 C 309.213 191.137, 306.521 187.739, 301.346 184.821 C 295.406 181.472, 290 179.685, 290 181.070 M 343.699 193.750 C 342.284 195.813, 340.870 198.850, 340.557 200.500 C 340.244 202.150, 340.271 202.825, 340.616 202 C 340.962 201.175, 342.573 198.137, 344.196 195.250 C 347.637 189.128, 347.388 188.374, 343.699 193.750 M 528.530 203.934 L 526.719 207.950 531.005 213.506 C 533.362 216.562, 535.612 219.260, 536.005 219.503 C 536.397 219.746, 539.370 216.288, 542.609 211.820 C 550.681 200.688, 550.651 200.746, 547.526 202.170 C 545.062 203.293, 536.615 202.413, 531.921 200.545 C 530.769 200.087, 529.851 201.004, 528.530 203.934 M 273.396 208.854 C 270.484 212.359, 260.335 213.087, 254.783 210.189 L 251.067 208.250 249.611 210.471 C 245.715 216.417, 244.713 220.546, 244.607 231.099 L 244.500 241.698 248.258 239.211 C 251.752 236.898, 252.650 236.760, 261.031 237.238 C 268.838 237.683, 270.368 237.499, 272.444 235.865 C 276.512 232.665, 278.362 226.106, 277.743 217.076 C 277.052 207, 276.229 205.444, 273.396 208.854 M 394 217.189 C 388.296 222.477, 388.618 222.610, 395.630 217.865 C 399.354 215.344, 402.046 211.930, 400.219 212.045 C 399.823 212.070, 397.025 214.385, 394 217.189 M 256 214.706 C 249.793 216.975, 245.311 226.434, 247.607 232.418 C 248.338 234.323, 255.992 234.596, 260.881 232.892 C 266.333 230.991, 268.557 223.912, 265.537 218.072 C 263.586 214.299, 260.293 213.137, 256 214.706 M 563 238.016 C 558.081 240.571, 552.622 246.549, 549.317 253 C 546.699 258.111, 546.477 259.472, 546.174 272.250 C 545.995 279.813, 546.245 286, 546.728 286 C 547.212 286, 549.097 284.464, 550.917 282.586 C 555.804 277.543, 564.402 274.096, 575.757 272.626 C 584.628 271.477, 591 269.145, 591 267.047 C 591 266.650, 592.975 264.378, 595.388 262 C 598.970 258.470, 599.871 256.838, 600.290 253.120 C 601.251 244.594, 610.382 240.159, 617.869 244.582 C 620.475 246.121, 620.654 246.063, 624.518 242.418 L 628.489 238.673 615.995 239.300 C 609.123 239.645, 600.350 240.731, 596.500 241.714 L 589.500 243.500 589.829 246.865 C 590.011 248.716, 589.890 251.304, 589.560 252.615 C 589.028 254.738, 588.402 255, 583.867 255 C 578.075 255, 571.929 252.105, 569.976 248.456 C 569.302 247.197, 568.245 243.924, 567.626 241.182 L 566.500 236.198 563 238.016 M 656.035 238.581 C 654.130 239.408, 650.176 241.892, 647.250 244.101 C 641.309 248.587, 634.506 252.162, 628.500 253.957 C 626.300 254.614, 623.898 255.344, 623.163 255.578 C 622.192 255.887, 622.535 256.847, 624.413 259.079 C 627.923 263.250, 628.281 271.196, 625.366 280.256 L 623.835 285.012 616.683 281.256 C 608.809 277.121, 605.356 273.080, 604.357 266.829 C 604.020 264.723, 603.446 263, 603.080 263 C 602.715 263, 600.410 265.060, 597.958 267.577 C 591.833 273.865, 590.845 274.271, 579.745 275.053 C 565.819 276.035, 563.693 277.500, 549.893 295.624 C 542.765 304.986, 535.891 311.111, 525.447 317.409 L 519.500 320.995 523.068 320.997 C 527.910 321.001, 536.161 323.553, 539.291 326.014 L 541.857 328.032 542.178 325.766 C 542.467 323.735, 543.123 323.472, 548.500 323.230 C 563.033 322.576, 568.688 334.027, 558.521 343.520 L 554.216 347.540 563.043 357.995 C 567.898 363.746, 572.857 370.426, 574.064 372.842 L 576.257 377.233 579.242 372.367 C 580.883 369.690, 583.351 366.298, 584.725 364.829 C 587.086 362.305, 587.135 362.030, 585.612 359.856 C 584.725 358.590, 584 355.696, 584 353.424 C 584 349.164, 585.940 346.184, 590.787 343 C 593.048 341.515, 593.054 341.452, 591.414 336.671 C 589.097 329.913, 589.994 324.289, 593.954 320.750 C 596.526 318.452, 597.941 318, 602.565 318 C 609.183 318, 613.415 319.967, 615.509 324.017 C 616.859 326.628, 616.873 327.343, 615.621 329.750 C 614.834 331.262, 612.998 333.531, 611.541 334.791 C 608.939 337.040, 608.749 339.911, 611.039 342.377 C 613.392 344.910, 624.061 337.926, 627.728 331.453 C 630.509 326.544, 630.600 322.032, 628.004 317.774 C 622.740 309.141, 628.861 299.742, 638.707 301.340 C 640.727 301.668, 643.253 302.808, 644.319 303.875 C 648.318 307.873, 643.744 317.301, 637.168 318.616 C 634.424 319.165, 634.286 319.449, 634.286 324.519 C 634.286 327.846, 633.529 331.375, 632.268 333.922 C 630.296 337.908, 630.294 338, 632.170 338 C 633.225 338, 636.881 337.297, 640.294 336.438 L 646.500 334.876 646.544 331.077 C 646.634 323.232, 652.936 318.829, 660.974 320.993 C 666.762 322.552, 670.391 326.446, 673.292 334.211 C 676.201 341.998, 676.086 342.206, 667.866 344.022 C 660.681 345.609, 655.846 344.682, 651.527 340.889 L 648.096 337.877 639.298 340.863 C 634.459 342.506, 626.467 344.591, 621.538 345.497 C 616.609 346.403, 612.227 347.360, 611.799 347.624 C 611.372 347.888, 611.753 349.220, 612.647 350.584 C 613.541 351.948, 614.631 356.312, 615.069 360.282 C 615.507 364.252, 616.161 368.464, 616.521 369.642 C 617.125 371.616, 616.720 371.835, 611.338 372.444 C 603.227 373.362, 598.162 371.487, 595.353 366.525 L 593.206 362.732 590.014 367.116 C 584.477 374.718, 582.286 379.172, 578.139 391.254 C 575.921 397.719, 572.151 406.773, 569.762 411.374 L 565.419 419.740 576.460 420.248 C 582.532 420.528, 593.014 421.791, 599.752 423.054 C 618.439 426.558, 621.875 424.832, 624.083 410.836 C 624.690 406.984, 625.752 403.986, 626.791 403.188 C 628.855 401.603, 633.632 402.357, 636.189 404.671 C 638.643 406.892, 640.313 413.534, 639.726 418.740 C 639.462 421.083, 639.303 423.034, 639.373 423.075 C 639.443 423.116, 643.100 423.738, 647.500 424.455 L 655.500 425.761 645.500 425.896 C 635.407 426.032, 630.679 427.172, 634.357 428.584 C 635.348 428.964, 639.705 429.032, 644.038 428.735 C 654.356 428.028, 664.442 423.594, 668.627 417.926 C 670.207 415.785, 672.288 413.771, 673.250 413.449 C 674.212 413.128, 675 412.467, 675 411.981 C 675 410.585, 683.905 404.823, 685.008 405.505 C 685.554 405.842, 686 405.651, 686 405.079 C 686 404.508, 684.245 403.145, 682.101 402.051 C 674.123 397.982, 671.598 389.046, 677 384 C 678.650 382.459, 680 380.750, 680 380.202 C 680 379.655, 681.591 377.811, 683.535 376.104 C 686.473 373.523, 687.907 373, 692.035 373 C 697.411 373, 701 375.348, 701 378.865 C 701 379.891, 701.969 381.963, 703.154 383.469 C 705.150 386.006, 705.196 386.403, 703.790 388.854 C 702.955 390.309, 701.966 392.783, 701.591 394.352 C 701.217 395.921, 699.583 398.621, 697.960 400.352 C 694.302 404.254, 694.269 404.997, 697.750 405.012 C 699.263 405.019, 702.386 406.102, 704.691 407.420 L 708.881 409.817 709.612 406.658 C 710.996 400.682, 710.323 357.082, 708.599 341 C 705.335 310.546, 700.981 288.815, 694.171 269 C 686.139 245.629, 685.769 244.814, 683.529 245.535 C 678.902 247.022, 675.809 247.164, 673.035 246.014 C 669.562 244.576, 666.778 240.741, 667.618 238.552 C 668.102 237.292, 667.393 237.007, 663.857 237.039 C 661.461 237.061, 657.941 237.755, 656.035 238.581 M 490.286 240.606 C 487.804 243.289, 481.447 243.934, 478.998 241.750 C 477.806 240.687, 477.794 240.761, 478.915 242.243 C 480.506 244.346, 485.929 245.901, 495.096 246.880 L 501.916 247.609 497.708 242.906 C 495.394 240.320, 493.275 238.205, 493 238.207 C 492.725 238.209, 491.504 239.289, 490.286 240.606 M 477 245.931 C 477 246.385, 474.555 248.440, 471.566 250.499 L 466.133 254.241 468.911 256.579 C 470.439 257.864, 472.997 261.748, 474.595 265.208 L 477.500 271.500 477.484 292 C 477.470 310.620, 476.809 317.754, 474.291 326.478 C 473.909 327.801, 475.545 326.789, 479.231 323.420 C 486.597 316.688, 496.927 311.370, 505.205 310.047 C 508.840 309.466, 512.468 309.242, 513.267 309.549 C 515.782 310.514, 521.209 304.808, 524.709 297.518 C 526.562 293.658, 527.788 291.625, 527.432 293 C 526.362 297.141, 523.034 304.300, 521.212 306.383 C 519.899 307.883, 520.265 307.785, 522.779 305.960 C 530.940 300.038, 533.657 285.484, 528.645 274.535 C 525.675 268.048, 518.060 259.582, 512.767 256.881 C 510.687 255.820, 504.601 254.051, 499.242 252.950 C 493.884 251.849, 486.688 249.633, 483.250 248.027 C 479.813 246.420, 477 245.477, 477 245.931 M 155 290.741 C 155 292.199, 157.147 294.436, 165 301.162 C 169.125 304.694, 173.984 308.192, 175.797 308.933 C 177.611 309.675, 179.748 311.546, 180.547 313.091 C 182.374 316.625, 182.424 323.038, 180.643 325.473 C 179.457 327.096, 179.657 327.923, 182.239 332.078 L 185.192 336.828 194.846 336.370 C 208.081 335.742, 212.431 335.137, 214.482 333.637 C 216.057 332.485, 215.283 331.599, 206.867 324.906 C 201.715 320.809, 194.861 315.441, 191.635 312.978 C 188.409 310.515, 182.513 306.011, 178.533 302.969 C 168.616 295.387, 155 288.313, 155 290.741 M 496 334.803 C 462.039 356.224, 451.248 364.611, 428.933 386.930 C 406.610 409.257, 400 420.197, 400 434.818 C 400 445.145, 404.819 456.940, 416.417 475 L 419.949 480.500 419.992 473 C 420.091 455.635, 425.176 443.134, 440.888 421.630 C 454.163 403.461, 459.079 393.624, 459.780 383.828 C 460.346 375.913, 461.802 376.753, 461.930 385.068 C 462.061 393.622, 458.372 402.517, 443.502 429.500 C 434.793 445.304, 432.671 452.880, 432.577 468.500 C 432.503 481.034, 435.547 507, 437.092 507 C 437.458 507, 438.324 505.631, 439.017 503.959 C 442.455 495.659, 459.667 484.673, 482.240 476.371 C 504.143 468.317, 517.756 460.292, 527.883 449.466 C 536.159 440.619, 538 436.755, 538 428.236 C 538 417.793, 540.949 412.707, 551.507 404.937 C 562.828 396.606, 567 390.240, 567 381.294 C 567 376.460, 563.483 368.190, 558.733 361.852 C 546.916 346.086, 535.842 333.281, 532.332 331.323 C 527.774 328.780, 516.527 324.995, 513.585 325.013 C 512.438 325.021, 504.525 329.426, 496 334.803 M 214.034 339.663 C 208.440 343.430, 208.911 343.389, 198 341.051 C 195.525 340.521, 191.685 340.068, 189.466 340.044 C 186.026 340.006, 185.171 340.440, 183.667 342.986 C 180.949 347.587, 176.085 350.678, 169.500 351.989 C 159.196 354.040, 157.316 356.222, 154.642 369.228 C 153.465 374.953, 151.054 380.821, 145.340 391.863 L 137.627 406.769 137.563 415.635 C 137.457 430.525, 141.662 436.670, 158.752 446.601 C 185.907 462.382, 206.297 475.858, 217.138 485.188 L 223.890 490.999 237.741 487.598 C 254.476 483.489, 268.131 481.709, 276.374 482.563 C 296.128 484.610, 310.660 492.440, 329 510.920 C 350.570 532.654, 362.830 557.127, 367.895 588.561 C 369.053 595.744, 370 605.620, 370 610.507 L 370 619.392 373.559 615.946 C 378.348 611.310, 388.415 596.480, 392.014 588.761 C 398.967 573.847, 399.806 557.478, 394.539 539.500 C 391.170 528, 380.804 506.885, 368.518 486.500 C 356.390 466.377, 347.157 454.101, 335.028 441.972 C 325.628 432.571, 324.005 431.403, 288.664 408.583 C 278.110 401.769, 263.891 387.986, 253.502 374.500 C 241.132 358.444, 226.828 342.012, 221.727 338 C 219.323 336.109, 219.306 336.113, 214.034 339.663 M 201.108 347.716 C 198.768 348.869, 197.095 350.791, 195.713 353.915 C 193.891 358.034, 193.815 359.117, 194.870 365.903 C 195.508 370.006, 196.238 373.571, 196.493 373.826 C 197.339 374.672, 206.034 370.842, 209.075 368.283 C 213.161 364.845, 215 360.935, 215 355.685 C 215 347.092, 209.167 343.746, 201.108 347.716 M 394.283 363.847 C 391.414 365.856, 388.276 368.959, 387.310 370.743 C 385.639 373.827, 385.638 374.315, 387.285 380.743 C 388.237 384.459, 389.027 388.625, 389.040 390 C 389.063 392.438, 389.100 392.451, 390.518 390.500 C 391.318 389.400, 392.903 387.422, 394.040 386.105 C 398.712 380.692, 400.095 376.349, 399.790 368.059 L 399.500 360.194 394.283 363.847 M 663.904 399.265 C 666.999 400.856, 669.749 404.595, 671.473 409.558 C 672.487 412.478, 673.011 413.070, 673.493 411.840 C 674.784 408.551, 667.031 397.985, 663.349 398.015 C 661.843 398.027, 661.946 398.259, 663.904 399.265 M 677.922 416.250 C 674.937 419.137, 670.986 422.783, 669.143 424.351 L 665.791 427.202 669.319 430.851 C 672.147 433.776, 678 444.497, 678 446.752 C 678 447.355, 670.961 446.308, 665.824 444.941 C 663.803 444.403, 659.466 441.946, 656.187 439.482 L 650.226 435 640.837 435 C 628.948 435, 617.830 433.672, 602 430.360 C 580.187 425.797, 568.809 428.317, 555 440.771 C 551.425 443.995, 544.225 449.822, 539 453.721 C 533.775 457.619, 528.375 462.033, 527 463.529 L 524.500 466.248 527 465.415 C 531.083 464.054, 557.548 464.664, 571 466.430 C 581.374 467.791, 601.462 471.667, 608.167 473.601 C 609.406 473.959, 609.707 473.595, 609.339 472.188 C 608.637 469.503, 610.596 462.895, 613.272 458.925 C 616.333 454.382, 621.580 451, 625.566 451 C 631.041 451, 632 451.799, 631.996 456.357 C 631.989 464.289, 626.433 469.865, 616.268 472.139 C 613.371 472.788, 611 473.636, 611 474.025 C 611 474.414, 614.263 476.181, 618.250 477.952 C 624.589 480.768, 632.241 485.064, 655 498.585 C 658.025 500.382, 661.812 503.225, 663.415 504.903 C 665.121 506.688, 668.440 508.572, 671.415 509.443 C 678.166 511.420, 680.857 513.462, 682.990 518.227 C 683.966 520.407, 684.991 521.810, 685.267 521.345 C 685.544 520.880, 687.414 515.392, 689.423 509.149 C 692.151 500.674, 692.799 497.463, 691.979 496.474 C 690.510 494.705, 680.490 487, 679.658 487 C 679.296 487, 678.993 488.688, 678.985 490.750 C 678.966 495.690, 677.222 498.934, 673.088 501.720 C 668.672 504.696, 665.864 504.598, 661.985 501.334 C 659.422 499.177, 658.922 498.140, 659.369 495.905 C 659.850 493.500, 659.556 493.061, 657.101 492.522 C 652.116 491.427, 647 484.589, 647 479.020 C 647 475.415, 650.818 471, 653.935 471 C 655.247 471, 656.177 470.144, 656.571 468.574 C 657.502 464.865, 660.630 462.593, 664.650 462.707 C 666.607 462.763, 668.701 463.301, 669.304 463.904 C 669.907 464.507, 671.457 465, 672.750 465 C 675.909 465, 680.527 467.486, 682.439 470.217 C 684.425 473.052, 684.421 476.286, 682.425 480.144 L 680.851 483.189 686.675 489.477 C 689.879 492.936, 692.755 495.818, 693.067 495.883 C 693.809 496.036, 696.361 487.695, 698.903 476.816 C 701.076 467.512, 706 439.837, 706 436.925 C 706 435.622, 704.696 434.886, 700.972 434.087 C 694.429 432.684, 691.470 430.659, 688.459 425.520 C 686.706 422.530, 686 419.841, 686 416.162 C 686 409.524, 684.862 409.537, 677.922 416.250 M 37.235 418.999 C 33.033 420.757, 31.556 429.494, 34.703 433.986 C 35.639 435.323, 37.971 437.786, 39.885 439.459 C 41.798 441.131, 44.130 443.317, 45.066 444.315 C 46.683 446.038, 46.744 445.905, 46.268 441.684 C 45.992 439.239, 46.256 436.398, 46.853 435.370 C 47.844 433.664, 47.942 433.653, 47.970 435.250 C 48.007 437.407, 48.424 437.423, 51.535 435.385 C 54.328 433.555, 54.641 431.127, 52.589 427.200 C 49.118 420.556, 42.263 416.895, 37.235 418.999 M 155 449.550 C 155 452.933, 162.978 461.310, 170 465.300 C 174.146 467.655, 189.227 474, 190.681 474 C 193.309 474, 176.448 460.880, 164.901 453.940 C 157.071 449.234, 155 448.316, 155 449.550 M 91.241 453.673 C 89.448 455.418, 86.594 457.150, 84.899 457.522 L 81.817 458.199 84.658 461.248 L 87.500 464.296 83.518 461.648 C 77.471 457.627, 75.840 458.427, 80.711 463.025 C 83.894 466.029, 85.741 467, 88.272 467 C 90.114 467, 94.491 468.125, 98 469.500 C 101.509 470.875, 104.522 472, 104.697 472 C 104.872 472, 103.285 469.413, 101.169 466.250 C 97.319 460.494, 95.352 456.250, 94.797 452.500 C 94.526 450.679, 94.209 450.783, 91.241 453.673 M 547 474.013 C 523.641 474.743, 516.232 475.875, 497.182 481.629 C 473.836 488.681, 454.970 501.072, 447.897 514 C 446.925 515.776, 446.346 522.724, 445.898 538 C 444.872 572.931, 439.851 589.373, 419.631 624 C 413.676 634.199, 413.501 634.701, 413.548 641.500 C 413.639 654.615, 422.812 675.046, 434.179 687.454 C 441.250 695.172, 451.256 702.132, 465.500 709.243 C 476.272 714.620, 500.124 723.983, 503.745 724.256 C 506.042 724.429, 526.415 712.458, 543.500 700.896 C 563.734 687.204, 576.988 676.129, 596.562 656.559 C 628.945 624.182, 651.840 592.434, 670.031 554.680 C 679.265 535.517, 679.182 536.124, 673.044 532.763 C 665.845 528.821, 662.654 523.560, 662.160 514.820 C 661.792 508.309, 661.565 507.748, 658.135 504.875 C 651.458 499.283, 628.333 485.364, 618.701 481.140 C 599.374 472.663, 597.185 472.446, 547 474.013 M 585.743 478.150 C 582.489 482.492, 581.661 485.377, 582.454 489.608 C 583.363 494.450, 588.303 499.624, 595.413 503.180 C 598.761 504.855, 602.230 506.866, 603.122 507.651 C 604.577 508.931, 604.859 508.617, 605.872 504.596 C 607.679 497.419, 607.255 491.904, 604.467 486.309 C 601.731 480.820, 596.458 476.442, 591.352 475.420 C 588.664 474.883, 587.921 475.245, 585.743 478.150 M 122.299 502.900 L 118.097 503.500 121.017 509.567 C 124.402 516.599, 126.415 518.672, 131.684 520.551 C 136.034 522.103, 149 522.482, 149 521.057 C 149 519.952, 145.772 514.103, 142.169 508.680 C 137.977 502.371, 134.036 501.224, 122.299 502.900 M 255.573 503.043 C 252.313 503.554, 242.413 506.432, 233.573 509.439 C 201.828 520.235, 192.496 522.249, 166 524.015 C 156.336 524.659, 146.185 525.955, 141.500 527.141 C 130.179 530.009, 111.330 537.307, 98.830 543.663 L 88.161 549.089 88.709 556.333 C 89.174 562.485, 88.929 564.219, 87.082 567.840 C 84.989 571.941, 77.370 578, 74.304 578 C 73.587 578, 73 578.530, 73 579.177 C 73 581.130, 86.567 602.236, 95.210 613.730 C 131.103 661.462, 175.024 699.440, 221.003 722.502 C 242.796 733.433, 253.980 736.702, 260.500 734.044 C 262.374 733.280, 262.343 733.194, 260 732.678 C 258.625 732.374, 255.505 731.854, 253.068 731.522 C 250.630 731.190, 246.059 730.159, 242.910 729.231 L 237.184 727.543 260.384 716.022 C 281.497 705.537, 312.316 686.990, 311.718 685.129 C 311.598 684.756, 314.344 681.537, 317.819 677.975 C 331.665 663.788, 339.891 646.671, 343.519 624.500 C 346.230 607.935, 344.813 594.211, 338.408 575 C 331.372 553.895, 320.964 536.351, 307.094 522.218 C 290.546 505.356, 275.804 499.869, 255.573 503.043 M 73.360 508.460 C 72.214 509.263, 70.709 511.288, 70.016 512.960 C 68.957 515.517, 68.209 516, 65.302 516 C 62.816 516, 61.026 516.820, 58.923 518.923 C 54.660 523.186, 55.029 526.449, 60.338 531.430 C 64.165 535.021, 64.585 535.834, 63.900 538.340 C 62.240 544.418, 67.487 548.871, 74.733 547.533 C 79.862 546.587, 83 543.480, 83 539.350 C 83 536.185, 83.110 536.091, 85.674 537.066 C 91.340 539.220, 96.352 536.212, 97.448 530 C 98.324 525.037, 95.309 520.472, 90.130 518.921 C 87.626 518.171, 86.346 517.263, 86.655 516.457 C 87.335 514.685, 84.382 509.275, 82.055 508.030 C 79.340 506.576, 75.800 506.752, 73.360 508.460 M 169.921 529.250 C 163.643 534.068, 161.733 537.170, 161.218 543.387 C 160.872 547.555, 161.387 550.660, 163.382 556.437 C 164.822 560.606, 166 564.689, 166 565.509 C 166 567.560, 166.526 567.422, 171.343 564.108 C 180.338 557.920, 185.989 549.582, 185.989 542.500 C 185.989 535.931, 179.783 526, 175.678 526 C 174.840 526, 172.250 527.462, 169.921 529.250 M 377 616.713 C 377 617.536, 364.521 632.812, 362.062 635 C 361.753 635.275, 357.260 640.225, 352.077 646 C 339.275 660.265, 324.703 674.654, 317.723 679.921 C 309.404 686.199, 311.520 686.230, 320.200 679.957 C 343.514 663.107, 364.481 641.169, 374.930 622.691 C 376.736 619.496, 377.941 616.608, 377.607 616.274 C 377.273 615.940, 377 616.138, 377 616.713 M 394.503 683.342 C 391.998 694.602, 392.731 707.624, 396.287 715.037 C 401.570 726.048, 411.841 735.137, 428.910 743.905 L 438.654 748.910 443.577 747.587 C 452.130 745.288, 468.440 740.005, 469.971 739.038 C 472.137 737.669, 471.181 737.225, 463.471 736.016 C 429.884 730.752, 405.136 710.582, 398.056 682.700 L 396.238 675.543 394.503 683.342 M 355.086 697.752 C 348.010 717.846, 338.537 738.263, 331.642 748.277 C 328.553 752.765, 327.403 755.197, 328.238 755.479 C 333.790 757.351, 374.265 758.840, 379.736 757.373 C 381.893 756.795, 381.827 756.611, 377.888 752.137 C 370.272 743.488, 364.501 731.729, 361.381 718.500 C 359.467 710.387, 359.141 691.786, 360.794 685.027 C 361.395 682.567, 361.764 680.430, 361.612 680.279 C 361.460 680.127, 358.524 687.990, 355.086 697.752 M 302.990 723.314 C 289.980 731.306, 284.118 734.966, 278.168 738.812 L 271.837 742.905 275.567 744.464 C 278.873 745.845, 284.715 747.481, 293.229 749.409 C 295.765 749.984, 296.180 749.586, 299.122 743.764 C 303.682 734.736, 309.109 721.827, 308.770 720.811 C 308.611 720.333, 306.010 721.459, 302.990 723.314" stroke="none" fill="inherit" fill-rule="evenodd"></path>
</g></svg><!----><!----></svg>